<?xml version="1.0" encoding="utf-8"?>
<!-- Generator: Adobe Illustrator 20.1.0, SVG Export Plug-In . SVG Version: 6.00 Build 0)  -->
<svg version="1.1" id="Capa_1" xmlns="http://www.w3.org/2000/svg" xmlns:xlink="http://www.w3.org/1999/xlink" x="0px" y="0px"
	 width="165.4px" height="64.9px" viewBox="0 0 165.4 64.9" style="enable-background:new 0 0 165.4 64.9;" xml:space="preserve">
<style type="text/css">
	.st0{fill:#3D4D59;}
	.st1{fill:#82005E;}
</style>
<path class="st0" d="M92.8,15.1c-0.7,0-1.1-0.2-1.5-0.7c-0.3-0.4-0.4-1-0.2-1.6c0.2-0.8,0.8-1.5,1.9-2.2c1.1-0.8,2-1.1,2.8-1.1
	c0.7,0,1.1,0.2,1.5,0.7c0.4,0.4,0.5,1,0.3,1.6c-0.2,0.8-0.8,1.6-1.8,2.3C94.7,14.7,93.7,15.1,92.8,15.1 M90.2,38.7
	c-1.5,0-2-1-1.5-2.9c0.1-0.3,0.2-0.7,0.4-1.1l0.2-1c0.5-1.8,0.7-4.6,0.8-8.1s0.2-5.8,0.5-6.7c0.5-2,1.6-3.1,3.2-3.1
	c1.3,0,1.8,0.7,1.8,2c-0.2,7.6-0.8,13.2-1.8,16.8C93.1,37.4,91.9,38.7,90.2,38.7z M103.8,38.7c-0.7,0.9-1.5,1.3-2.4,1.3
	c-1.1,0-1.7-0.5-1.8-1.6c-0.2-0.9-0.1-2,0.1-3.3c0.2-1.1,0.3-2.3,0.5-3.4c0.2-1,0.2-2.3,0-3.7c-0.1-1.2-0.3-2.4-0.4-3.7
	c-0.2-2.4-0.4-5.3-0.4-8.9c0-4.4,0.1-7.4,0.4-8.7c0.2-0.7,0.5-1.2,1.1-1.6c0.6-0.4,1.2-0.7,1.8-0.7c1.2,0,1.8,0.7,1.8,2
	c-0.1,3.6-0.1,8.9,0.1,16.1c3.2-4.2,6.3-6.3,9.3-6.3c1.9,0,3.3,1.1,4,3.3c0.7,1.9,0.7,3.9,0.2,5.9c-0.7,2.8-2.6,5.7-5.5,8.7
	C109.3,37.4,106.4,38.9,103.8,38.7z M112.4,20.8c-1.3,0-2.8,1.3-4.5,4.1c-1.5,2.4-2.4,4.3-2.8,5.8c0,0.1-0.1,1.2-0.3,3.2l0.5,0
	c1.3,0,2.9-1.1,4.8-3.4c1.7-2.1,2.8-3.8,3.1-5.3C113.7,23.2,113.5,21.7,112.4,20.8z M121.7,15.1c-0.7,0-1.1-0.2-1.5-0.7
	c-0.3-0.4-0.4-1-0.2-1.6c0.2-0.8,0.8-1.5,1.9-2.2c1.1-0.8,2-1.1,2.8-1.1c0.7,0,1.1,0.2,1.5,0.7c0.4,0.4,0.5,1,0.3,1.6
	c-0.2,0.8-0.8,1.6-1.8,2.3C123.5,14.7,122.6,15.1,121.7,15.1z M119,38.7c-1.5,0-2-1-1.5-2.9c0.1-0.3,0.2-0.7,0.4-1.1l0.2-1
	c0.5-1.8,0.7-4.6,0.8-8.1s0.2-5.8,0.5-6.7c0.5-2,1.6-3.1,3.2-3.1c1.3,0,1.8,0.7,1.8,2c-0.2,7.6-0.8,13.2-1.8,16.8
	C122,37.4,120.8,38.7,119,38.7z M157.4,19.9c-1.4,0.9-2.7,2.2-3.5,3.6c1.8-0.7,3.2-1.3,4.3-1.9C158.3,20.9,157.9,20.1,157.4,19.9z
	 M142.8,43.1c-1.1,0-1.9-1.3-2.5-4c0-0.1-0.3-2-0.7-5.7c-2.2,3.8-4.9,5.7-8.1,5.7c-2.4,0-4.2-0.9-5.3-2.8c-1.1-1.8-1.3-4-0.6-6.6
	c0.9-3.3,2.4-6.2,4.6-8.7c2.6-2.9,5.4-4.5,8.5-4.6c0.1-6,0.4-10,0.9-12c0.2-0.7,0.5-1.3,1.1-1.8c0.6-0.5,1.2-0.8,1.8-0.8
	c1.3,0,2,0.7,1.9,2.1c-0.2,2.4-0.6,6.1-0.9,11c-0.1,3.3,0.2,7.4,0.7,12.3c0.1-0.1,0.2-0.2,0.2-0.3c0.7-0.7,3.3-1.6,3.9-1.5l0.1-0.3
	c0.5-2,1.8-4.2,4-6.4c2.2-2.4,4.4-3.6,6.3-3.6c1.5,0,2.6,0.8,3.5,2.4c0.9,1.5,1.1,3.1,0.7,4.6c-0.4,1.5-1.8,2.9-4.1,4.1
	c-0.4,0.2-2.4,1-5.8,2.4c0.2,1.2,0.6,2.3,1.3,3.4c0.8,1.4,1.6,2.1,2.6,2.1c1.2,0,2.5-0.7,3.8-2.2c1.4-1.5,2.6-2.2,3.8-2.2
	c0.9,0,1.2,0.8,0.8,2.3c-0.5,1.9-1.8,3.5-3.7,4.9c-2,1.3-4,2-5.9,2c-2,0-3.7-0.9-5.2-2.8c-1.2-1.5-2-3.4-2.3-5.6
	c-0.4,0.2-2.8,0.9-3.2,0.9c-0.1,0-0.2,0-0.3,0c0.3,2.6,0.7,5.5,1.2,8.5c0,0.3,0,0.7-0.1,1c-0.2,0.7-0.5,1.2-1.1,1.6
	C144.1,42.9,143.5,43.1,142.8,43.1z M138.7,21.3c-0.4-0.1-0.7-0.1-0.9-0.1c-1.7,0-3.3,1-4.8,3.1c-1.3,1.7-2.2,3.4-2.6,5.3
	c-0.3,1.3-0.3,2.4,0,3.2c0.4,1.1,1.2,1.6,2.4,1.6c1.1,0,2.2-1.1,3.2-3.2c1.1-2.3,2.1-3.5,3.1-3.9C138.8,25.3,138.7,23.3,138.7,21.3z
	 M70.3,64.9c-0.7,0-1.1-0.2-1.5-0.7c-0.3-0.4-0.4-1-0.2-1.6c0.1-0.5,1.1-1.4,2.9-2.8c2.2-1.7,4-3.4,5.3-5c2.1-2.6,3.7-5.7,4.6-9.3
	c1-3.7,1.5-8.4,1.4-14c-1.4,1.9-3.2,3.6-5.3,5.1c-2.3,1.6-4.5,2.4-6.5,2.4c-3.3,0-4.4-2.4-3.5-7.2c-1.2,1.4-3.1,2.9-5.8,4.4
	c-4,2.4-7.2,3.6-9.5,3.6c-4.9,0-7.5-3.1-7.9-9.4c0-0.7,0-1.5,0-2.3c-0.7-0.1-1.3-0.4-1.8-0.9c-0.4-0.5-0.6-1.2-0.4-2
	c0.3-1.1,1-2,2.1-2.5c0.2-0.1,0.4-0.2,0.7-0.3c0.3-2.2,0.7-4.6,1.3-7.3c-0.7-0.1-1.3-0.4-1.7-0.9c-0.4-0.5-0.5-1.1-0.3-1.9
	c0.3-1.1,0.9-1.8,1.9-2.4c1.1-0.5,3.7-1.5,8-2.8c4.4-1.3,6.9-2,7.7-2c0.7,0,1.3,0.2,1.7,0.8C63.8,6.4,64,7,63.8,7.8
	c-0.4,1.3-2.1,2.5-5.2,3.5c-2.2,0.5-4.4,1.1-6.7,1.6c-0.6,2.9-1,5.1-1.3,6.5c0,0,0,0.4-0.1,0.9c0.8-0.2,1.6-0.5,2.5-0.8
	c4.8-1.5,7.6-2.2,8.5-2.2c0.8,0,1.4,0.2,1.9,0.8c0.5,0.5,0.6,1.2,0.4,2c-0.4,1.4-2.3,2.7-5.7,3.8c-1.3,0.3-5.1,1.5-8.4,2.6
	c-0.1,1.8,0,3.3,0.4,4.6c0.6,2.2,1.7,3.3,3.3,3.3c1.6,0,3.4-0.7,5.5-2c0.7-0.4,2.2-1.7,4.6-3.7c1.6-1.3,2.7-1.9,3.3-1.9
	c0.8,0,1.3,0.3,1.7,0.8c0,0.1,0.1,0.2,0.2,0.2c1-2.4,2.6-4.8,4.7-7.1c3.1-3.4,6.2-5.2,9-5.2c1.9,0,2.9,0.9,3.1,2.6
	c1.2-0.1,1.8,0.4,2,1.7c0.9,10,0.4,18.6-1.4,25.8c-1,4-2.7,7.6-5,10.8c-2.5,3.5-5.7,6.2-9.3,8.1C71.2,64.8,70.7,64.9,70.3,64.9z
	 M72.3,34.1c1.6,0.1,3.3-0.9,5.3-3.1c1.8-2,2.9-3.8,3.3-5.5l0.1-0.3c0,0,1.1-4.1-0.7-4.5c-1.1-0.2-3.6,2.2-4.9,4
	c-1.3,1.6-2.2,3.4-2.7,5.5C72.3,31.4,72.2,32.8,72.3,34.1z"/>
<path class="st1" d="M17.5,19.1c0.7-2.2-0.8-4.7-2.9-6.2c-1.9-1.3-4.2-1.1-4.8,1.1c-0.7,2.2,0.5,5.2,2.6,6.7
	C14.5,22.1,16.9,21.3,17.5,19.1 M113.6,37.8c0.4-0.4,0.6-0.5,0.4-0.1c-5.6,9-31.8,38.4-93.2-3.3l-8.7,16.7c-4,7.4-6.6-1.8-4.9-5
	l9-14.9c-4.8-3.5-9.9-7.4-15.2-11.7c-1.9-1.5-1.9-5.5,5.4-0.4c4.2,2.9,8.2,5.6,12.2,8.1L32.6,4.6c5.1-8.3,5.5-3.3,3.9-0.4L23,30.1
	c34.6,21.9,61.3,31,82.9,14.5C109.9,41.6,112.4,39,113.6,37.8z"/>
</svg>
